OpenSim_Sub10_CSBaseline_RCS.mot
version=1
nRows=78
nColumns=11
inDegrees=no
endheader
time	Top_Thigh	Med_Thigh	Bot_Thigh	Top_Shank	2nd_Top_Shank	2nd_Bot_Shank	Bot_Shank	BNOx	BNOy	BNOZ
45.55000000	2076.48659482	2010.42956623	533.99482193	1314.95191137	1505.11530657	1315.15642843	1309.96028931	0	0	0
45.56000000	2072.69927275	2001.19993048	525.89059010	1314.50078494	1505.61013260	1315.91767738	1309.73962973	0	0	0
45.57000000	2067.44514471	1990.47013505	532.96188825	1313.80044992	1505.94970217	1316.63151265	1309.49934980	0	0	0
45.58000000	2061.49742118	1979.32511429	548.80794236	1312.98990203	1506.10799931	1317.28076375	1309.26293573	0	0	0
45.59000000	2055.62931266	1968.84980257	567.02797842	1312.20813700	1506.05900802	1317.84826021	1309.05387375	0	0	0
45.60000000	2050.56422062	1960.05720109	581.62822328	1311.58495253	1505.78077184	1318.31785371	1308.89405395	0	0	0
45.61000000	2046.51133750	1953.21770098	590.81662417	1311.15518977	1505.29324326	1318.68394854	1308.78888869	0	0	0
45.62000000	2043.37650002	1948.16359323	595.27991784	1310.89767053	1504.64109884	1318.94717441	1308.73406935	0	0	0
45.63000000	2041.06162407	1944.72150647	595.73687902	1310.79049263	1503.86933468	1319.10824150	1308.72516168	0	0	0
45.64000000	2039.46862553	1942.71806932	592.90628245	1310.81175383	1503.02294687	1319.16785999	1308.75773142	0	0	0
45.65000000	2038.49942030	1941.97991042	587.50690286	1310.93955195	1502.14693153	1319.12674006	1308.82734431	0	0	0
45.66000000	2038.05592425	1942.33365838	580.25751498	1311.15198476	1501.28628474	1318.98559190	1308.92956608	0	0	0
45.67000000	2038.04005329	1943.60594184	571.87689355	1311.42715006	1500.48600261	1318.74512569	1309.05996249	0	0	0
45.68000000	2038.35372329	1945.62338941	563.08381330	1311.74314564	1499.79108124	1318.40605161	1309.21409928	0	0	0
45.69000000	2038.89885014	1948.21262974	554.59704897	1312.07806929	1499.24651674	1317.96907984	1309.38754217	0	0	0
45.70000000	2039.57734974	1951.20029143	547.13537528	1312.41001881	1498.89730519	1317.43492057	1309.57585693	0	0	0
45.71000000	2040.29113797	1954.41300312	541.41756698	1312.71709198	1498.78844271	1316.80428397	1309.77460928	0	0	0
45.72000000	2040.94213072	1957.67739344	538.16239879	1312.97738659	1498.96492540	1316.07788023	1309.97936497	0	0	0
45.73000000	2041.41203781	1960.82260283	537.84942373	1313.17179449	1499.45178408	1315.26456140	1310.18525834	0	0	0
45.74000000	2041.47327902	1963.69135760	539.66429740	1313.29631984	1500.16606191	1314.41721718	1310.38509047	0	0	0
45.75000000	2040.86149298	1966.13095634	542.35721968	1313.35205284	1500.98845923	1313.60355791	1310.57087716	0	0	0
45.76000000	2039.31229060	1967.98870107	544.67806232	1313.34008750	1501.79964897	1312.89130514	1310.73463360	0	0	0
45.77000000	2036.56128282	1969.11189383	545.37669705	1313.26151782	1502.48030410	1312.34818039	1310.86837502	0	0	0
45.78000000	2032.34408056	1969.34783664	543.20299560	1313.11743783	1502.91109757	1312.04190518	1310.96411662	0	0	0
45.79000000	2026.40630705	1968.54873221	536.95729220	1312.90878813	1502.97483793	1312.03902659	1311.01414766	0	0	0
45.80000000	2018.88281382	1966.75729675	527.40165063	1312.63054526	1502.63735535	1312.36043427	1311.02141095	0	0	0
45.81000000	2010.41407378	1964.26373029	517.84649073	1312.26993828	1501.97232802	1312.96770732	1311.00268860	0	0	0
45.82000000	2001.67435136	1961.37477262	511.77254329	1311.81367845	1501.06064179	1313.81846100	1310.97568766	0	0	0
45.83000000	1993.33791096	1958.39716352	512.66053906	1311.24847705	1499.98318252	1314.87031059	1310.95811518	0	0	0
45.84000000	1986.07901702	1955.63764278	523.99120882	1310.56104534	1498.82083604	1316.08087135	1310.96767817	0	0	0
45.85000000	1980.56768462	1953.40123035	549.22063464	1309.73833611	1497.65413560	1317.40774353	1311.02195414	0	0	0
45.86000000	1977.14515633	1951.85988075	589.89781982	1308.78598833	1496.53633241	1318.80736597	1311.12849758	0	0	0
45.87000000	1975.59538242	1950.95999345	644.33913674	1307.74131530	1495.47443274	1320.23420881	1311.27787326	0	0	0
45.88000000	1975.64833092	1950.62611945	710.54782804	1306.64469852	1494.47096333	1321.64255148	1311.45900027	0	0	0
45.89000000	1977.03396983	1950.78280974	786.52713639	1305.53651946	1493.52845094	1322.98667342	1311.66079768	0	0	0
45.90000000	1979.48226717	1951.35461533	870.28030442	1304.45715957	1492.64942231	1324.22085408	1311.87218458	0	0	0
45.91000000	1982.72319096	1952.26608721	959.81057478	1303.44700035	1491.83640420	1325.29937289	1312.08208003	0	0	0
45.92000000	1986.48670919	1953.44177638	1053.12119012	1302.54642326	1491.09192334	1326.17650930	1312.27940313	0	0	0
45.93000000	1990.50278989	1954.80623384	1148.21539308	1301.79580978	1490.41850649	1326.80654274	1312.45307294	0	0	0
45.94000000	1994.50140107	1956.28401059	1243.09642633	1301.23554138	1489.81868040	1327.14375265	1312.59200854	0	0	0
45.95000000	1998.21251073	1957.79965763	1335.76753249	1300.90599952	1489.29497180	1327.14241847	1312.68512901	0	0	0
45.96000000	2001.36608690	1959.27772595	1424.23195423	1300.84756570	1488.84990746	1326.75681964	1312.72135342	0	0	0
45.97000000	2003.69209759	1960.64276656	1506.49293419	1301.10062137	1488.48601411	1325.94123560	1312.68960087	0	0	0
45.98000000	2004.92051080	1961.81933045	1580.55371501	1301.70554801	1488.20581851	1324.64994580	1312.57879041	0	0	0
45.99000000	2004.78129455	1962.73196863	1644.41753935	1302.70272710	1488.01184740	1322.83722966	1312.37784114	0	0	0
46.00000000	2003.00441686	1963.30523208	1696.08764984	1304.13254010	1487.90662753	1320.45736664	1312.07567212	0	0	0
46.01000000	1999.31984573	1963.46367182	1733.56728915	1306.03536850	1487.89268565	1317.46463616	1311.66120244	0	0	0
46.02000000	1993.45754918	1963.13183884	1754.85969992	1308.45159375	1487.97254851	1313.81331767	1311.12335117	0	0	0
46.03000000	1985.42340698	1962.24674447	1759.15948311	1311.35891759	1488.10791525	1309.57256970	1310.48002628	0	0	0
46.04000000	1977.26191503	1960.83749208	1754.46409179	1314.27192474	1487.95884118	1305.66032665	1309.96331631	0	0	0
46.05000000	1971.20929601	1958.97745667	1750.02295024	1316.66425086	1487.17970622	1303.04015762	1309.81439716	0	0	0
46.06000000	1967.36007269	1956.74911244	1747.09804505	1318.50381216	1485.80924023	1301.68231011	1310.01657231	0	0	0
46.07000000	1965.41200343	1954.23657989	1745.47116692	1319.85009078	1483.95735139	1301.37304986	1310.50538483	0	0	0
46.08000000	1965.06284660	1951.52397951	1744.92410654	1320.76256886	1481.73394789	1301.89864264	1311.21637781	0	0	0
46.09000000	1966.01036058	1948.69543182	1745.23865463	1321.30072853	1479.24893790	1303.04535419	1312.08509432	0	0	0
46.10000000	1967.95230373	1945.83505731	1746.19660188	1321.52405195	1476.61222961	1304.59945027	1313.04707744	0	0	0
46.11000000	1970.58643443	1943.02697648	1747.57973898	1321.49202124	1473.93373119	1306.34719664	1314.03787026	0	0	0
46.12000000	1973.61051103	1940.35530983	1749.16985665	1321.26411856	1471.32335085	1308.07485904	1314.99301584	0	0	0
46.13000000	1976.72229191	1937.90417787	1750.74874557	1320.89982603	1468.89099674	1309.56870323	1315.84805727	0	0	0
46.14000000	1979.61953545	1935.75770109	1752.09819646	1320.45862579	1466.74657707	1310.61499497	1316.53853763	0	0	0
46.15000000	1982	1934	1753	1320	1465	1311	1317	0	0	0
46.16000000	1983.63582597	1932.69372624	1753.30219836	1319.57307176	1463.73223401	1310.57128066	1317.18567832	0	0	0
46.17000000	1984.59668184	1931.81565603	1753.11783953	1319.18552809	1462.90848867	1309.42158558	1317.11957002	0	0	0
46.18000000	1985.02661813	1931.32109672	1752.62622295	1318.83469697	1462.46503385	1307.70495996	1316.84336339	0	0	0
46.19000000	1985.06968536	1931.16535567	1752.00664806	1318.51790642	1462.33813941	1305.57544902	1316.39874672	0	0	0
46.20000000	1984.86993405	1931.30374026	1751.43841432	1318.23248440	1462.46407522	1303.18709797	1315.82740830	0	0	0
46.21000000	1984.57141472	1931.69155782	1751.10082117	1317.97575893	1462.77911113	1300.69395200	1315.17103643	0	0	0
46.22000000	1984.31817787	1932.28411573	1751.17316805	1317.74505798	1463.21951701	1298.25005633	1314.47131939	0	0	0
46.23000000	1984.25427403	1933.03672135	1751.83475441	1317.53770956	1463.72156271	1296.00945616	1313.76994548	0	0	0
46.24000000	1984.52375372	1933.90468202	1753.26487969	1317.35104165	1464.22151812	1294.12619671	1313.10860299	0	0	0
46.25000000	1985.27066746	1934.84330512	1755.64284335	1317.18238224	1464.65565307	1292.75432317	1312.52898021	0	0	0
46.26000000	1986.63906575	1935.80789800	1759.14794482	1317.02905934	1464.96023745	1292.04788077	1312.07276543	0	0	0
46.27000000	1988.77623744	1936.77759703	1763.92266952	1316.88772593	1465.08629974	1292.13608242	1311.77533683	0	0	0
46.28000000	1991.85340462	1937.90764986	1769.83742423	1316.75004641	1465.09394405	1292.96461503	1311.62543691	0	0	0
46.29000000	1996.05251630	1939.43223771	1776.64066923	1316.60544925	1465.09216247	1294.39690857	1311.59090592	0	0	0
46.30000000	2001.55557211	1941.58591415	1784.08028960	1316.44335238	1465.19017767	1296.29600502	1311.63948550	0	0	0
46.31000000	2008.54457167	1944.60323275	1791.90417044	1316.25317374	1465.49721238	1298.52494635	1311.73891732	0	0	0
46.32000000	2017.20151462	1948.71874707	1799.86019682	1316.02433125	1466.12248927	1300.94677454	1311.85694303	0	0	0
